<svg xmlns="http://www.w3.org/2000/svg" viewBox="0 0 500 500"><defs><style>.a{fill:#414042;}.a,.b,.e,.f{stroke:#231f20;}.a,.b,.c,.d,.e,.f{stroke-miterlimit:10;stroke-width:7px;}.b{fill:#a7a9ac;}.c{fill:#ef4136;stroke:#be1e2d;}.d{fill:#1b75bc;stroke:#00aeef;}.e{fill:#fff;}.f{fill:none;}</style></defs><title>character</title><rect class="a" x="200.87" y="370" width="67.89" height="115.26" rx="12" ry="12"/><rect class="b" x="138.15" y="40.65" width="193.33" height="186.46" rx="12" ry="12"/><rect class="c" x="135.01" y="175.79" width="196.48" height="238.95" rx="12" ry="12"/><rect class="c" x="200.87" y="175.79" width="67.89" height="115.26" rx="12" ry="12"/><path class="d" d="M126.13,118.79c-20.28-1.66-16.06-80.45,4.79-91.66s191.79-17.8,205.81-6.59S357.22,59.78,348.68,67s-12.86-2.3-40,0c-18.06,1.54-33.1-1.61-56,0s-45.34,47.24-69.34,52.24C171.06,121.88,158.27,121.43,126.13,118.79Z"/><circle class="e" cx="306.8" cy="100.66" r="9.34"/><line class="f" x1="302.9" y1="165" x2="329.38" y2="165"/></svg>